<svg id="Layer_1" data-name="Layer 1" xmlns="http://www.w3.org/2000/svg" xmlns:xlink="http://www.w3.org/1999/xlink" viewBox="0 0 155.16 12.72"><defs><style>.cls-1{fill:none;}.cls-2{clip-path:url(#clip-path);}.cls-3{fill:#231f20;}.cls-4{fill:#dc2827;}</style><clipPath id="clip-path" transform="translate(-1.07 0.08)"><rect class="cls-1" x="1.07" y="-0.2" width="155.35" height="12.83"/></clipPath></defs><title>homepage-logo-1</title><g class="cls-2"><polyline class="cls-3" points="0 0.31 1.44 0.31 1.44 11.08 6.97 11.08 6.97 12.41 0 12.41 0 0.31"/><path class="cls-3" d="M23.92,7.71a7,7,0,0,1-.25,1.88,4.38,4.38,0,0,1-.79,1.56,3.79,3.79,0,0,1-1.41,1.08,5,5,0,0,1-2.12.4,5,5,0,0,1-2.12-.4,3.79,3.79,0,0,1-1.41-1.08A4.35,4.35,0,0,1,15,9.59a7,7,0,0,1-.25-1.88V.22h1.44V7.5a6.49,6.49,0,0,0,.15,1.42,3.5,3.5,0,0,0,.51,1.21,2.6,2.6,0,0,0,1,.85,3.22,3.22,0,0,0,1.5.32,3.2,3.2,0,0,0,1.5-.32,2.59,2.59,0,0,0,1-.85,3.5,3.5,0,0,0,.51-1.21,6.49,6.49,0,0,0,.15-1.42V.22h1.44V7.71" transform="translate(-1.07 0.08)"/><polyline class="cls-3" points="31.05 0.31 32.48 0.31 32.48 11.08 38.02 11.08 38.02 12.41 31.05 12.41 31.05 0.31"/><path class="cls-3" d="M55,7.71a7,7,0,0,1-.25,1.88A4.38,4.38,0,0,1,54,11.15a3.79,3.79,0,0,1-1.41,1.08,5.79,5.79,0,0,1-4.24,0,3.78,3.78,0,0,1-1.41-1.08,4.32,4.32,0,0,1-.79-1.56,6.94,6.94,0,0,1-.25-1.88V.22H47.3V7.5a6.42,6.42,0,0,0,.15,1.42A3.46,3.46,0,0,0,48,10.14a2.6,2.6,0,0,0,1,.85,3.74,3.74,0,0,0,3,0,2.58,2.58,0,0,0,1-.85,3.48,3.48,0,0,0,.51-1.21,6.49,6.49,0,0,0,.15-1.42V.22H55V7.71" transform="translate(-1.07 0.08)"/><path class="cls-4" d="M87.48,10.58A6.12,6.12,0,0,1,85.91,12a3.86,3.86,0,0,1-2.05.51,4.69,4.69,0,0,1-1.47-.23,3.61,3.61,0,0,1-1.22-.67,3.38,3.38,0,0,1-.84-1.09A3.27,3.27,0,0,1,80,9.08a3.15,3.15,0,0,1,.21-1.17,3.52,3.52,0,0,1,.58-1,4.26,4.26,0,0,1,.86-.77,7.17,7.17,0,0,1,1-.59,7.51,7.51,0,0,1-1-1.27,2.78,2.78,0,0,1-.43-1.54,2.66,2.66,0,0,1,.26-1.19,2.58,2.58,0,0,1,.68-.87,3,3,0,0,1,1-.53,4.06,4.06,0,0,1,2.36,0,3,3,0,0,1,1,.5,2.37,2.37,0,0,1,.66.84,2.72,2.72,0,0,1,.24,1.17,2.31,2.31,0,0,1-.23,1,3.14,3.14,0,0,1-.6.84,5.06,5.06,0,0,1-.82.67,9.42,9.42,0,0,1-.91.54L87.4,8.48,89,5.76h1.63L88.32,9.49l2.77,2.84h-2l-1.64-1.74m-3.9-4.14a8.47,8.47,0,0,0-.77.45,4.26,4.26,0,0,0-.68.55,2.53,2.53,0,0,0-.5.7,2,2,0,0,0-.19.87,2.12,2.12,0,0,0,.19.91,2.3,2.3,0,0,0,.51.72,2.34,2.34,0,0,0,.75.48,2.42,2.42,0,0,0,.91.17,2.58,2.58,0,0,0,.85-.14,3,3,0,0,0,.73-.37,4.43,4.43,0,0,0,.63-.53c.2-.2.4-.41.59-.64Zm.36-1.56.7-.39A4,4,0,0,0,85.3,4a2.19,2.19,0,0,0,.48-.6A1.58,1.58,0,0,0,86,2.65a1.28,1.28,0,0,0-.45-1,1.64,1.64,0,0,0-1.08-.38,1.84,1.84,0,0,0-1.23.44,1.48,1.48,0,0,0-.51,1.19,1.51,1.51,0,0,0,.27.88,6,6,0,0,0,.57.71Z" transform="translate(-1.07 0.08)"/><path class="cls-3" d="M122.44,2.36a2.11,2.11,0,0,0-1-.85,3.07,3.07,0,0,0-1.25-.26,3.8,3.8,0,0,0-.94.12,2.82,2.82,0,0,0-.83.36,1.8,1.8,0,0,0-.59.63,1.83,1.83,0,0,0-.22.92,1.94,1.94,0,0,0,.13.73,1.57,1.57,0,0,0,.42.57,3.15,3.15,0,0,0,.78.48,11.1,11.1,0,0,0,1.21.44c.47.15.92.31,1.36.48a4.61,4.61,0,0,1,1.16.65,2.89,2.89,0,0,1,.8,1,3.26,3.26,0,0,1,.3,1.48,3.19,3.19,0,0,1-1.31,2.67,4.13,4.13,0,0,1-1.36.65,5.89,5.89,0,0,1-1.59.21,6.09,6.09,0,0,1-1.06-.09,5.08,5.08,0,0,1-1-.29,4.1,4.1,0,0,1-.92-.51,3.1,3.1,0,0,1-.74-.78l1.23-1a2.54,2.54,0,0,0,1.09,1,3.35,3.35,0,0,0,1.49.34,3.3,3.3,0,0,0,.93-.14,2.84,2.84,0,0,0,.85-.4,2.21,2.21,0,0,0,.62-.66,1.7,1.7,0,0,0,.24-.91,1.94,1.94,0,0,0-.19-.92,1.69,1.69,0,0,0-.58-.61,4.46,4.46,0,0,0-1-.46l-1.4-.48a8.8,8.8,0,0,1-1.2-.47,3.66,3.66,0,0,1-.95-.65,2.76,2.76,0,0,1-.63-.92,3.27,3.27,0,0,1-.23-1.29,3.23,3.23,0,0,1,.34-1.52,3.21,3.21,0,0,1,.92-1.08A4.22,4.22,0,0,1,118.7.14a5.6,5.6,0,0,1,3.41.09,3.67,3.67,0,0,1,1.51,1.1l-1.18,1" transform="translate(-1.07 0.08)"/><polyline class="cls-3" points="130.35 0.31 131.78 0.31 131.78 5.54 131.99 5.54 137.49 0.31 139.56 0.31 133.58 5.83 139.85 12.41 137.75 12.41 131.99 6.25 131.78 6.25 131.78 12.41 130.35 12.41 130.35 0.31"/><polyline class="cls-3" points="149.22 7.2 144.7 0.31 146.53 0.31 149.93 5.78 153.44 0.31 155.16 0.31 150.65 7.2 150.65 12.41 149.22 12.41 149.22 7.2"/></g></svg>