<svg xmlns="http://www.w3.org/2000/svg" xmlns:xlink="http://www.w3.org/1999/xlink" viewBox="0 0 966.451 111.514"><defs><path id="reuse-0" d="M27.09 13.675c0 5.993 3.662 11.726 10.275 11.726 6.548 0 10.148-5.604 10.148-11.726 0-7.882-5.714-11.204-10.21-11.204-5.204 0-10.213 3.975-10.213 11.204zM47.38.357h2.568V27.16H47.38v-4.754c-2.634 4.105-6.807 5.473-10.21 5.473-6.87 0-12.777-5.276-12.777-14.004C24.394 5.667 29.53 0 37.17 0c4.108 0 7.708 1.629 10.21 5.21z" style="fill:#0db3b3;fill-opacity:1;stroke:none;stroke-opacity:.98823529"/><path id="reuse-1" d="M103.753 13.675c0 5.993 3.662 11.726 10.275 11.726 6.548 0 10.148-5.604 10.148-11.726 0-7.882-5.714-11.204-10.21-11.204-5.202 0-10.213 3.975-10.213 11.204zM124.047.357h2.567V27.16h-2.567v-4.754c-2.634 4.105-6.807 5.473-10.21 5.473-6.87 0-12.778-5.276-12.778-14.004C101.06 5.667 106.195 0 113.837 0c4.108 0 7.707 1.629 10.21 5.21z" style="fill:#0db3b3;fill-opacity:1;stroke:none;stroke-opacity:.98823529"/><path id="reuse-2" d="M89.761 2.599H80.15V0h22.071v2.596h-9.63v24.121h-2.83z" style="fill:#0db3b3;fill-opacity:1;stroke:none;stroke-opacity:.98823529"/><path id="reuse-3" d="M80.15 26.717h-2.696V13.635c0-7.208-5.007-11.165-10.209-11.165-4.496 0-10.21 3.31-10.21 11.165l.129 13.082h-2.569V0h2.569v5.192C59.669 1.623 63.264 0 67.373 0 75.014 0 80.15 5.647 80.15 13.827Z" style="fill:#0db3b3;fill-opacity:1;stroke:none;stroke-opacity:.98823529"/><path id="reuse-4" d="M221.866 26.717h-2.697V13.635c0-7.208-5.007-11.165-10.209-11.165-4.496 0-10.21 3.31-10.21 11.165l.13 13.082h-2.57V0h2.57v5.192C201.383 1.623 204.98 0 209.087 0c7.641 0 12.778 5.647 12.778 13.827z" style="fill:#0db3b3;fill-opacity:1;stroke:none;stroke-opacity:.98823529"/><path id="reuse-5" d="M237.922 5.475c-.892-2.085-2.67-2.998-4.514-2.998-2.924 0-4.387 2.279-4.387 4.235 0 2.604 2.035 3.45 4.579 4.493 2.608 1.041 5.024 1.758 6.676 3.907 1.08 1.369 1.337 2.8 1.337 4.299 0 6.057-4.453 8.467-8.459 8.467-4.325 0-7.885-2.604-8.965-7.034l2.48-.782c.892 3.517 3.627 5.339 6.489 5.339 3.307 0 5.785-2.412 5.785-5.862 0-2.995-1.844-4.104-5.785-5.732-2.608-1.107-4.514-1.955-5.659-3.518-.573-.783-1.145-1.889-1.145-3.45 0-4.038 2.99-6.839 6.93-6.839 3.054 0 5.597 1.432 6.803 4.299z" style="fill:#0db3b3;fill-opacity:1;stroke:none;stroke-opacity:.98823529"/><path id="reuse-6" d="M148.685 26.717h-17.424V0h2.926v24.118h14.498z" style="fill:#0db3b3;fill-opacity:1;stroke:none;stroke-opacity:.98823529"/><path id="reuse-7" d="M17.951 9.975c0 5.454-3.795 8.077-9.39 8.077H2.9V2.598h5.685c5.338 0 9.038 2.39 9.366 7.347zm2.958-.11C20.509 3.246 15.546 0 8.456 0H.072L0 26.717h2.828l.072-6.068h5.533c7.396 0 12.476-3.533 12.476-10.741Z" style="fill:#0db3b3;fill-opacity:1;stroke:none;stroke-opacity:.98823529"/></defs><g style="fill:#0db3b3;fill-opacity:1;fill-rule:evenodd;stroke:none;stroke-width:1;stroke-opacity:.98823529"><g style="fill:#0db3b3;fill-opacity:1;stroke:none;stroke-opacity:.98823529"><use xlink:href="#reuse-0" style="fill:#0db3b3;fill-opacity:1;stroke:none;stroke-opacity:.98823529" transform="scale(4)"/><use xlink:href="#reuse-0" style="fill:#0db3b3;fill-opacity:1;stroke:none;stroke-width:.7039296;stroke-opacity:.98823529" transform="scale(4)"/><use xlink:href="#reuse-1" style="fill:#0db3b3;fill-opacity:1;stroke:none;stroke-opacity:.98823529" transform="scale(4)"/><use xlink:href="#reuse-1" style="fill:#0db3b3;fill-opacity:1;stroke:none;stroke-width:.7039296;stroke-opacity:.98823529" transform="scale(4)"/><use xlink:href="#reuse-2" style="fill:#0db3b3;fill-opacity:1;stroke:none;stroke-opacity:.98823529" transform="scale(4)"/><use xlink:href="#reuse-2" style="fill:#0db3b3;fill-opacity:1;stroke:none;stroke-width:.7039296;stroke-opacity:.98823529" transform="scale(4)"/><use xlink:href="#reuse-3" style="fill:#0db3b3;fill-opacity:1;stroke:none;stroke-opacity:.98823529" transform="scale(4)"/><use xlink:href="#reuse-3" style="fill:#0db3b3;fill-opacity:1;stroke:none;stroke-width:.7039296;stroke-opacity:.98823529" transform="scale(4)"/><use xlink:href="#reuse-4" style="fill:#0db3b3;fill-opacity:1;stroke:none;stroke-opacity:.98823529" transform="scale(4)"/><use xlink:href="#reuse-4" style="fill:#0db3b3;fill-opacity:1;stroke:none;stroke-width:.7039296;stroke-opacity:.98823529" transform="scale(4)"/><use xlink:href="#reuse-5" style="fill:#0db3b3;fill-opacity:1;stroke:none;stroke-opacity:.98823529" transform="scale(4)"/><use xlink:href="#reuse-5" style="fill:#0db3b3;fill-opacity:1;stroke:none;stroke-width:.7039296;stroke-opacity:.98823529" transform="scale(4)"/><use xlink:href="#reuse-6" style="fill:#0db3b3;fill-opacity:1;stroke:none;stroke-opacity:.98823529" transform="scale(4)"/><use xlink:href="#reuse-6" style="fill:#0db3b3;fill-opacity:1;stroke:none;stroke-width:.7039296;stroke-opacity:.98823529" transform="scale(4)"/><use xlink:href="#reuse-7" style="fill:#0db3b3;fill-opacity:1;stroke:none;stroke-opacity:.98823529" transform="scale(4)"/><use xlink:href="#reuse-7" style="fill:#0db3b3;fill-opacity:1;stroke:none;stroke-width:.7039296;stroke-opacity:.98823529" transform="scale(4)"/><path d="M161.567 25.403c-6.43 0-11.287-5.014-11.287-11.465 0-6.449 4.857-11.462 11.287-11.462 2.862 0 5.414.995 7.363 2.668l-.037.046a13.296 13.296 0 0 0-1.193 1.767c-1.148 2.034-1.798 4.412-1.798 6.98 0 2.572.65 4.948 1.802 6.985a9.134 9.134 0 0 0 1.859-2.36 12.003 12.003 0 0 1-.905-4.624c0-6.449 4.857-11.462 11.29-11.462 6.43 0 11.286 5.013 11.286 11.462 0 6.447-4.857 11.465-11.286 11.465-2.865 0-5.417-.996-7.366-2.669.409-.505.78-1.04 1.11-1.606 1.228-2.082 1.92-4.533 1.92-7.194 0-2.66-.695-5.11-1.92-7.192a9.152 9.152 0 0 0-1.857 2.296 11.99 11.99 0 0 1 1.021 4.893c0 1.765-.368 3.417-1.02 4.896-.694 1.574-3.607 6.576-10.27 6.576M179.946 0c-3.56 0-6.753 1.22-9.19 3.272C168.317 1.218 165.128 0 161.568 0c-7.94 0-14.044 6.058-14.044 13.938 0 7.879 6.104 13.94 14.044 13.94 3.56 0 6.75-1.22 9.189-3.275 2.435 2.055 5.628 3.275 9.189 3.275 7.939 0 14.042-6.058 14.042-13.94C193.991 6.055 187.887 0 179.945 0" style="fill:#0db3b3;fill-opacity:1;stroke:none;stroke-opacity:.98823529" transform="scale(4)"/><path d="M161.567 25.403c-6.43 0-11.287-5.014-11.287-11.465 0-6.449 4.857-11.462 11.287-11.462 2.862 0 5.414.995 7.363 2.668l-.037.046a13.296 13.296 0 0 0-1.193 1.767c-1.148 2.034-1.798 4.412-1.798 6.98 0 2.572.65 4.948 1.802 6.985a9.134 9.134 0 0 0 1.859-2.36 12.003 12.003 0 0 1-.905-4.624c0-6.449 4.857-11.462 11.29-11.462 6.43 0 11.286 5.013 11.286 11.462 0 6.447-4.857 11.465-11.286 11.465-2.865 0-5.417-.996-7.366-2.669.409-.505.78-1.04 1.11-1.606 1.228-2.082 1.92-4.533 1.92-7.194 0-2.66-.695-5.11-1.92-7.192a9.152 9.152 0 0 0-1.857 2.296 11.99 11.99 0 0 1 1.021 4.893c0 1.765-.368 3.417-1.02 4.896-.694 1.574-3.607 6.576-10.27 6.576zM179.945 0c-3.56 0-6.753 1.22-9.19 3.272C168.317 1.218 165.128 0 161.568 0c-7.94 0-14.044 6.058-14.044 13.938 0 7.879 6.104 13.94 14.044 13.94 3.56 0 6.75-1.22 9.189-3.275 2.435 2.055 5.628 3.275 9.189 3.275 7.939 0 14.042-6.058 14.042-13.94C193.991 6.055 187.887 0 179.945 0Z" style="fill:#0db3b3;fill-opacity:1;stroke:none;stroke-width:.7039296;stroke-opacity:.98823529" transform="scale(4)"/></g></g></svg>